<svg width="33" height="23" viewBox="0 0 33 23" fill="none" xmlns="http://www.w3.org/2000/svg">
<rect x="0.314453" y="0.758789" width="32.1143" height="22.0213" rx="2" fill="#0284C7"/>
<path fillRule="evenodd" clipRule="evenodd" d="M6.44472 8.55811L3.52588 15.2074H7.02014L7.45332 14.1472H8.44349L8.87667 15.2074H12.7229V14.3982L13.0656 15.2074H15.0551L15.3979 14.3811V15.2074H23.3969L24.3695 14.1747L25.2803 15.2074L29.3888 15.2159L26.4607 11.9013L29.3888 8.55811H25.344L24.3972 9.57166L23.5151 8.55811H14.8132L14.066 10.2743L13.3012 8.55811H9.81426V9.33973L9.42636 8.55811H6.44472ZM18.3896 9.50231H22.9831L24.388 11.0645L25.8382 9.50231H27.2431L25.1085 11.9004L27.2431 14.2708H25.7745L24.3695 12.6904L22.9119 14.2708H18.3896V9.50231ZM19.524 11.3612V10.4902V10.4894H22.3901L23.6408 11.8823L22.3347 13.2829H19.524V12.332H22.0299V11.3612H19.524ZM7.12084 9.50231H8.8241L10.7602 14.0112V9.50231H12.626L14.1214 12.7352L15.4996 9.50231H17.3561V14.2736H16.2264L16.2172 10.5348L14.5703 14.2736H13.5598L11.9036 10.5348V14.2736H9.57964L9.13906 13.2039H6.75877L6.3191 14.2727H5.07394L7.12084 9.50231ZM7.1652 12.2151L7.94941 10.3096L8.73271 12.2151H7.1652Z" fill="white"/>
</svg>
