<svg width="33" height="23" viewBox="0 0 33 23" fill="none" xmlns="http://www.w3.org/2000/svg">
<rect x="0.771484" y="0.758789" width="32.1143" height="22.0213" rx="2" fill="white"/>
<path fillRule="evenodd" clipRule="evenodd" d="M8.42957 8.95523C8.86085 8.99161 9.29214 8.73694 9.5617 8.41406C9.82676 8.08208 10.002 7.63641 9.95704 7.18164C9.57517 7.19983 9.10345 7.43631 8.8339 7.76829C8.58681 8.05479 8.37566 8.51866 8.42957 8.95523ZM13.5601 14.8126V7.72282H16.1883C17.545 7.72282 18.493 8.66874 18.493 10.0512C18.493 11.4337 17.527 12.3887 16.1523 12.3887H14.6473V14.8126H13.5601ZM9.95252 9.04164C9.57257 9.01951 9.22587 9.15731 8.94584 9.26862C8.76563 9.34025 8.61303 9.40091 8.49693 9.40091C8.36664 9.40091 8.20774 9.33701 8.02933 9.26526L8.02933 9.26526C7.79555 9.17125 7.52827 9.06377 7.24799 9.06893C6.60555 9.07802 6.00804 9.44639 5.68008 10.033C5.0062 11.2063 5.50487 12.9435 6.1563 13.8985C6.47527 14.3715 6.85714 14.8899 7.36031 14.8717C7.58167 14.8633 7.74091 14.7949 7.9057 14.7241C8.09542 14.6426 8.29252 14.558 8.60026 14.558C8.89733 14.558 9.0858 14.6404 9.26672 14.7196C9.43875 14.7948 9.60395 14.8671 9.84919 14.8627C10.3703 14.8536 10.6983 14.3897 11.0173 13.9167C11.3615 13.4091 11.5128 12.9137 11.5357 12.8385L11.5384 12.8298C11.5379 12.8293 11.5336 12.8273 11.5261 12.8238C11.411 12.7705 10.5315 12.3629 10.5231 11.27C10.5146 10.3526 11.2207 9.88784 11.3318 9.81467C11.3386 9.81022 11.3432 9.80722 11.3452 9.80565C10.896 9.1326 10.1951 9.05983 9.95252 9.04164ZM20.4787 14.8672C21.1616 14.8672 21.795 14.517 22.0826 13.9622H22.105V14.8126H23.1114V11.2836C23.1114 10.2604 22.3027 9.60097 21.0583 9.60097C19.9037 9.60097 19.0501 10.2695 19.0186 11.1881H19.998C20.0789 10.7515 20.4787 10.465 21.0268 10.465C21.6917 10.465 22.0646 10.7788 22.0646 11.3564V11.7475L20.7078 11.8293C19.4454 11.9066 18.7625 12.4296 18.7625 13.3392C18.7625 14.2578 19.4679 14.8672 20.4787 14.8672ZM20.7707 14.0259C20.1911 14.0259 19.8227 13.7439 19.8227 13.3119C19.8227 12.8662 20.1777 12.607 20.856 12.5661L22.0645 12.4888V12.889C22.0645 13.5529 21.5075 14.0259 20.7707 14.0259ZM26.4493 15.09C26.0135 16.3315 25.5149 16.7408 24.4546 16.7408C24.3737 16.7408 24.1042 16.7317 24.0413 16.7135V15.8631C24.1087 15.8722 24.2749 15.8813 24.3603 15.8813C24.841 15.8813 25.1105 15.6767 25.2768 15.1446L25.3756 14.8308L23.5336 9.6692H24.6703L25.9506 13.8576H25.9731L27.2535 9.6692H28.3587L26.4493 15.09ZM14.6472 8.65053H15.9006C16.8441 8.65053 17.3832 9.15986 17.3832 10.0558C17.3832 10.9516 16.8441 11.4655 15.8961 11.4655H14.6472V8.65053Z" fill="#111111"/>
</svg>
