<svg width="100%" height="100%" viewBox="0 0 1418 152" fill="none" xmlns="http://www.w3.org/2000/svg">
<path d="M142.384 2.47708H245.783V23.0448H162.949V68.6704H244.188V88.0104H162.949V129.38H245.783V149.936H142.384V2.47708ZM391.85 149.936H412.415V2.47708H391.85V149.936ZM712.593 2.47708H692.016V114.658C692.016 114.74 692.016 114.81 692.016 114.892C691.936 114.775 691.855 114.67 691.775 114.565L610.881 2.47708H591.314V149.936H611.879V39.3798C611.879 39.1459 611.879 38.9004 611.879 38.6548C612.028 38.8653 612.177 39.0758 612.327 39.2745L693.026 149.936H712.593V2.47708ZM958.225 114.647C958.225 114.729 958.225 114.81 958.225 114.892C958.145 114.775 958.064 114.658 957.984 114.553L877.411 2.94479L877.067 2.47708H857.5V149.936H878.065V39.3564C878.065 39.1225 878.065 38.877 878.065 38.6314C878.226 38.8536 878.375 39.0641 878.524 39.2628L959.224 149.924H978.779V2.47708H958.214V114.647H958.225ZM1001.2 149.924H1021.77V2.47708H1001.2V149.936V149.924ZM1269.39 92.5355L1269.36 92.6291L1269.2 93.3423C1263.82 116.751 1246.58 130.175 1221.91 130.175C1191.72 130.175 1173.7 110.005 1173.7 76.2006C1173.7 42.3965 1191.72 22.2146 1221.91 22.2146C1246.54 22.2146 1263.34 35.3106 1269.21 59.0939L1269.36 59.702L1269.39 59.7838L1269.56 59.7487L1289.58 55.5159L1289.03 53.0838C1281.77 20.7063 1257.38 1.74043 1222.12 1.05055H1220.92C1179.1 1.05055 1153.12 29.8384 1153.12 76.2006C1153.12 122.563 1179.1 151.339 1220.92 151.339H1222.17C1257.39 150.649 1281.77 131.683 1289.03 99.3057L1289.59 96.8268L1269.39 92.5355ZM1397.42 2.47708V65.6186H1321.95V2.47708H1301.38V149.936H1321.95V86.5839H1397.42V149.936H1418V2.47708H1397.42ZM1153.88 2.47708H1040.6V23.0331H1087.05V149.936H1107.62V23.0214H1153.88V2.47708ZM128.314 76.2006C128.314 99.6448 120.809 118.88 106.613 131.835C93.6454 143.668 75.7084 149.924 54.7647 149.924H0.47168V2.47708H54.7532C75.6969 2.47708 93.6339 8.73276 106.602 20.5659C120.798 33.5216 128.303 52.7564 128.303 76.2006H128.314ZM107.543 76.2006C107.543 50.4997 93.8405 23.0331 55.3614 23.0331H21.2433V129.368H55.3614C67.6063 129.368 107.543 125.533 107.543 76.1889V76.2006ZM318.162 61.8535C299.077 59.3278 282.609 57.1412 282.609 45.1443C282.609 30.1307 295.118 21.5131 316.923 21.5131C336.696 21.5131 347.506 28.8913 349.056 43.4255L349.388 46.5943L369.288 42.3614L369.001 39.7422C366.396 16.4968 346.45 1.63519 316.9 0.957005H315.316C300.638 0.957005 287.372 4.92089 277.95 12.112C267.518 20.0748 262.01 31.5689 262.01 45.3431C262.01 73.9907 290.47 78.0832 315.58 81.6963C321.697 82.5732 327.836 83.4151 333.861 84.7715C338.647 85.8472 343.616 87.2153 347.77 89.9514C357.502 96.3591 354.862 110.087 348.918 118.26C346.267 121.896 342.698 124.749 338.693 126.679C327.664 131.964 313.801 132.256 302.199 128.667C295.761 126.679 289.943 123.159 285.398 118.084C282.77 115.15 280.521 111.607 278.685 107.537L277.916 105.865H255.916C255.916 105.865 257.064 109.736 257.156 109.935C257.534 111.116 257.97 112.32 258.475 113.606C258.889 114.682 259.336 115.746 259.795 116.763C269.951 139.482 289.69 151.491 316.877 151.491C317.519 151.491 318.151 151.491 318.77 151.468C358.787 150.672 370.217 127.626 373.465 114.004C373.534 113.781 373.58 113.548 373.614 113.384C373.775 112.694 373.913 111.992 374.027 111.384C374.096 111.022 374.165 110.648 374.234 110.262C374.326 109.654 374.429 109.058 374.498 108.485C374.796 106.169 374.957 103.854 374.957 101.586C374.957 69.3954 343.467 65.221 318.151 61.8768M573.193 86.8411C573.193 86.7593 573.193 86.6891 573.182 86.6073C573.056 84.1167 572.597 81.9184 571.839 80.0125C569.579 74.3531 564.609 71.3247 557.299 71.3247H494.686V89.4369H531.444V101.691C531.444 102.802 531.386 103.936 531.272 105.059L531.249 105.257C531.226 105.456 531.203 105.655 531.168 105.854C530.526 110.332 528.598 114.799 526.073 118.26C525.12 119.581 524.042 120.797 522.86 121.896C520.783 123.837 518.407 125.451 515.848 126.679C504.819 131.964 490.956 132.256 479.354 128.667C476.875 127.895 474.477 126.901 472.216 125.661C471.872 125.486 471.516 125.287 471.172 125.088C470.77 124.855 470.38 124.621 469.99 124.364C467.27 122.633 464.768 120.54 462.565 118.084C460.453 115.722 458.571 112.975 456.976 109.864C456.964 109.841 456.953 109.818 456.942 109.794C456.563 109.058 456.196 108.309 455.851 107.537L455.071 105.854H455.048C454.864 105.374 454.658 104.907 454.474 104.404C453.981 103.106 453.522 101.761 453.12 100.381C452.592 98.6275 452.122 96.8034 451.72 94.9209C450.503 89.2148 449.895 82.9591 449.895 76.2357C449.895 58.4742 455.094 42.9929 464.148 33.7672C474.201 23.7464 492.437 21.6534 502.467 21.6534C527.358 21.6534 543.93 34.6208 550.391 59.1641L550.528 59.6786L570.359 55.4808L569.797 53.0838C562.027 20.2152 538.123 1.75212 502.478 1.07393H501.296C452.202 1.07393 429.353 29.8618 429.353 76.2123C429.353 80.7141 429.56 85.0638 429.984 89.2265C429.984 89.2265 430.019 89.4954 430.076 89.9865C430.386 92.5122 431.476 100.744 433.083 105.83C433.083 105.83 434.23 109.712 434.322 109.899C434.701 111.092 435.137 112.296 435.642 113.571C436.067 114.658 436.503 115.711 436.962 116.728C438.867 120.984 441.116 124.866 443.675 128.362C443.87 128.643 444.077 128.9 444.272 129.169C444.364 129.298 444.456 129.415 444.547 129.532C444.662 129.672 444.777 129.812 444.892 129.953C445.247 130.42 445.615 130.865 445.993 131.309L446.326 131.695C446.716 132.128 447.095 132.56 447.462 132.969C447.52 133.04 447.589 133.11 447.657 133.18C448.094 133.659 448.541 134.127 449 134.571C449.321 134.91 449.643 135.238 449.976 135.53C450.331 135.869 450.71 136.197 451.077 136.536C451.146 136.594 451.203 136.653 451.249 136.699C451.284 136.735 451.33 136.77 451.376 136.805L451.399 136.828C451.559 136.968 451.72 137.097 451.869 137.226C452.087 137.413 452.317 137.612 452.535 137.799C452.604 137.845 452.661 137.904 452.718 137.939C463.322 146.837 477.243 151.456 494.043 151.456C494.686 151.456 495.317 151.456 495.937 151.433C496.465 151.421 496.993 151.409 497.509 151.397C498.209 151.374 498.898 151.339 499.609 151.292C528.311 149.69 541.279 136.091 547.131 123.908C547.556 123.019 547.935 122.142 548.291 121.277C549.346 118.681 550.092 116.202 550.632 113.969C550.792 113.325 550.919 112.694 551.045 112.051C551.091 111.852 551.137 111.665 551.171 111.466C552.032 106.742 551.997 101.925 551.951 97.1075C551.94 95.9732 551.928 94.8273 551.928 93.6931V89.4136H555.463V149.936H573.239V88.1507C573.239 87.6947 573.228 87.2504 573.205 86.8177L573.193 86.8411ZM786.682 61.8535C767.597 59.3278 751.129 57.1412 751.129 45.1443C751.129 30.1307 763.638 21.5131 785.442 21.5131C805.216 21.5131 816.026 28.8913 817.575 43.4255L817.908 46.5943L837.807 42.3614L837.521 39.7422C834.938 16.4851 814.993 1.6235 785.442 0.945312H783.859C769.181 0.945312 755.915 4.90919 746.493 12.1003C736.061 20.0632 730.553 31.5572 730.553 45.3314C730.553 73.979 759.013 78.0715 784.123 81.6846C790.239 82.5615 796.379 83.4034 802.404 84.7598C807.189 85.8355 812.158 87.2036 816.313 89.9397C826.044 96.3474 823.405 110.075 817.46 118.248C814.809 121.885 811.24 124.738 807.235 126.667C796.207 131.952 782.344 132.245 770.742 128.655C764.304 126.667 758.485 123.147 753.941 118.073C751.313 115.138 749.063 111.595 747.227 107.526L746.458 105.854H724.459C724.459 105.854 725.606 109.724 725.698 109.923C726.077 111.104 726.513 112.308 727.018 113.594C727.431 114.67 727.879 115.734 728.338 116.751C738.494 139.471 758.233 151.479 785.419 151.479C786.062 151.479 786.693 151.479 787.313 151.456C827.33 150.661 838.76 127.614 842.008 113.992C842.076 113.77 842.122 113.536 842.157 113.372C842.317 112.682 842.455 111.981 842.57 111.373C842.639 111.01 842.708 110.636 842.776 110.25C842.868 109.642 842.972 109.046 843.04 108.473C843.339 106.158 843.499 103.843 843.499 101.574C843.499 69.3837 812.009 65.2093 786.693 61.8652" fill="white"/>
</svg>
