<svg width="33" height="23" viewBox="0 0 33 23" fill="none" xmlns="http://www.w3.org/2000/svg">
<rect x="0.657227" y="0.758789" width="32.1143" height="22.0213" rx="2" fill="white"/>
<path fill-rule="evenodd" clip-rule="evenodd" d="M15.8245 15.2176V12.4457H17.2551C17.8413 12.4457 18.3361 12.2492 18.7395 11.8618L18.8363 11.7636C19.5731 10.9615 19.5247 9.71199 18.7395 8.96991C18.3469 8.57704 17.809 8.36424 17.2551 8.37516H14.9586V15.2176H15.8245ZM15.8246 11.6054V9.21546H17.2769C17.5889 9.21546 17.8848 9.3355 18.1053 9.55376C18.5733 10.0121 18.5841 10.776 18.1322 11.2507C17.9117 11.4854 17.5997 11.6163 17.2769 11.6054H15.8246ZM22.8754 10.9015C22.5043 10.5578 21.9988 10.3831 21.3587 10.3831C20.5359 10.3831 19.9174 10.6887 19.5086 11.2944L20.2723 11.78C20.552 11.3653 20.9339 11.158 21.4179 11.158C21.7245 11.158 22.0203 11.2725 22.2515 11.4799C22.4774 11.6763 22.6065 11.9601 22.6065 12.2602V12.4621C22.2731 12.2765 21.8536 12.1783 21.3372 12.1783C20.7349 12.1783 20.2508 12.3202 19.8905 12.6094C19.5301 12.8986 19.3473 13.2805 19.3473 13.7662C19.3365 14.2081 19.5248 14.6283 19.8582 14.912C20.197 15.2176 20.6273 15.3704 21.1329 15.3704C21.7299 15.3704 22.2031 15.103 22.5635 14.5683H22.6011V15.2176H23.4294V12.3311C23.4294 11.7254 23.2465 11.2453 22.8754 10.9015ZM20.5253 14.3554C20.3478 14.2245 20.2402 14.0117 20.2402 13.7825C20.2402 13.526 20.3585 13.3132 20.5898 13.1441C20.8265 12.9749 21.1224 12.8876 21.472 12.8876C21.9561 12.8822 22.3327 12.9913 22.6016 13.2096C22.6016 13.5806 22.4564 13.9025 22.1713 14.1754C21.9131 14.4373 21.5634 14.5846 21.1977 14.5846C20.9556 14.5901 20.7189 14.5082 20.5253 14.3554ZM25.2903 17.2747L28.1838 10.5359H27.2426L25.9034 13.8971H25.8873L24.5158 10.5359H23.5746L25.4731 14.9175L24.3975 17.2747H25.2903Z" fill="#111111"/>
<path d="M12.835 11.8455C12.835 11.5781 12.8135 11.3107 12.7705 11.0488H9.11865V12.5603H11.2108C11.1248 13.0459 10.8451 13.4824 10.4363 13.7552V14.7374H11.6841C12.4155 14.0553 12.835 13.0459 12.835 11.8455Z" fill="#3B82F6"/>
<path d="M9.11882 15.6869C10.1622 15.6869 11.0443 15.3377 11.6843 14.7375L10.4365 13.7553C10.0869 13.9954 9.64052 14.1318 9.11882 14.1318C8.1077 14.1318 7.25256 13.4388 6.94599 12.5112H5.66058V13.5261C6.31673 14.8521 7.65593 15.6869 9.11882 15.6869Z" fill="#16A34A"/>
<path d="M6.94615 12.5113C6.78478 12.0257 6.78478 11.4964 6.94615 11.0053V9.99585H5.66053C5.10648 11.1035 5.10648 12.4131 5.66053 13.5207L6.94615 12.5113Z" fill="#FBBF24"/>
<path d="M9.11882 9.38468C9.67279 9.37376 10.2052 9.58657 10.6032 9.97397L11.7112 8.84994C11.0066 8.18425 10.0815 7.81867 9.11882 7.82958C7.65593 7.82958 6.31673 8.66988 5.66058 9.9958L6.94599 11.0107C7.25256 10.0776 8.1077 9.38468 9.11882 9.38468Z" fill="#EF4444"/>
</svg>
