<svg width="33" height="23" viewBox="0 0 33 23" fill="none" xmlns="http://www.w3.org/2000/svg">
<rect x="0.885742" y="0.758789" width="32.1143" height="22.0213" rx="2" fill="#FCA5A5"/>
<path fillRule="evenodd" clipRule="evenodd" d="M5.86271 14.8705H4.55597V9.01685H5.86271V14.8705ZM9.12513 9.01685H7.84673C7.84673 10.0941 7.36498 11.0828 6.52505 11.7296L6.01857 12.1196L7.98102 14.8707H9.59454L7.78882 12.3393C8.64476 11.463 9.12513 10.2841 9.12513 9.01685ZM11.2094 14.8689H9.97534V9.01797H11.2094V14.8689ZM14.9379 10.8216V11.0805C14.6049 10.8469 14.203 10.7097 13.7695 10.7097C12.6223 10.7097 11.6922 11.6658 11.6922 12.8453C11.6922 14.0248 12.6223 14.9809 13.7695 14.9809C14.203 14.9809 14.6049 14.8437 14.9379 14.6102V14.8689H16.1166V10.8216H14.9379ZM14.9343 12.8454C14.9343 13.4205 14.4562 13.8868 13.8663 13.8868C13.2765 13.8868 12.7983 13.4205 12.7983 12.8454C12.7983 12.2703 13.2765 11.8042 13.8663 11.8042C14.4562 11.8042 14.9343 12.2703 14.9343 12.8454ZM27.3728 11.0805V10.8216H28.5515V14.8689H27.3728V14.6102C27.0399 14.8437 26.6379 14.9809 26.2044 14.9809C25.0571 14.9809 24.1271 14.0248 24.1271 12.8453C24.1271 11.6658 25.0571 10.7097 26.2044 10.7097C26.6379 10.7097 27.0399 10.8469 27.3728 11.0805ZM26.3012 13.8868C26.8911 13.8868 27.3692 13.4205 27.3692 12.8454C27.3692 12.2703 26.8911 11.8042 26.3012 11.8042C25.7113 11.8042 25.2332 12.2703 25.2332 12.8454C25.2332 13.4205 25.7113 13.8868 26.3012 13.8868ZM22.0326 10.7128C21.5617 10.7128 21.1162 10.8631 20.8182 11.2777V10.8219H19.6446V14.869H20.8326V12.7421C20.8326 12.1266 21.2341 11.8252 21.7174 11.8252C22.2355 11.8252 22.5333 12.1434 22.5333 12.7337V14.869H23.7106V12.2952C23.7106 11.3533 22.9821 10.7128 22.0326 10.7128ZM17.94 10.8216V11.3487C18.1763 11.0325 18.6165 10.8218 19.0952 10.8218V11.9995L19.0886 11.9992L19.0812 11.999C18.6148 11.999 17.9427 12.3417 17.9427 12.9792V14.8688H16.7332V10.8216H17.94ZM29.0631 14.1937C29.0631 13.7737 29.3942 13.4333 29.8027 13.4333C30.2112 13.4333 30.5424 13.7737 30.5424 14.1937C30.5424 14.6136 30.2112 14.9541 29.8027 14.9541C29.3942 14.9541 29.0631 14.6136 29.0631 14.1937Z" fill="#111111"/>
</svg>
