<svg width="33" height="23" viewBox="0 0 33 23" fill="none" xmlns="http://www.w3.org/2000/svg">
<rect x="0.428711" y="0.758789" width="32.1143" height="22.0213" rx="2" fill="white"/>
<path fillRule="evenodd" clipRule="evenodd" d="M16.7153 16.5011C15.622 17.4446 14.2037 18.0141 12.654 18.0141C9.19604 18.0141 6.39282 15.1784 6.39282 11.6803C6.39282 8.1822 9.19604 5.34644 12.654 5.34644C14.2037 5.34644 15.622 5.91601 16.7153 6.85951C17.8086 5.91601 19.2269 5.34644 20.7766 5.34644C24.2345 5.34644 27.0378 8.1822 27.0378 11.6803C27.0378 15.1784 24.2345 18.0141 20.7766 18.0141C19.2269 18.0141 17.8086 17.4446 16.7153 16.5011Z" fill="#DC2626"/>
<path fillRule="evenodd" clipRule="evenodd" d="M16.7153 16.5011C18.0615 15.3393 18.9151 13.6106 18.9151 11.6803C18.9151 9.74992 18.0615 8.02126 16.7153 6.85951C17.8086 5.91601 19.2268 5.34644 20.7766 5.34644C24.2345 5.34644 27.0377 8.1822 27.0377 11.6803C27.0377 15.1784 24.2345 18.0141 20.7766 18.0141C19.2268 18.0141 17.8086 17.4446 16.7153 16.5011Z" fill="#F59E0B"/>
<path fillRule="evenodd" clipRule="evenodd" d="M16.7153 6.85962C18.0615 8.02136 18.9151 9.75002 18.9151 11.6804C18.9151 13.6107 18.0615 15.3394 16.7153 16.5011C15.3691 15.3394 14.5154 13.6107 14.5154 11.6804C14.5154 9.75002 15.3691 8.02136 16.7153 6.85962Z" fill="#EA580C"/>
</svg>
