<svg width="33" height="23" viewBox="0 0 33 23" fill="none" xmlns="http://www.w3.org/2000/svg">
<rect x="0.542969" y="0.758789" width="32.1143" height="22.0213" rx="2" fill="white"/>
<path fillRule="evenodd" clipRule="evenodd" d="M9.62675 14.7432H8.1994C8.10172 14.7432 8.01865 14.8142 8.00342 14.9105L7.42612 18.5707C7.41464 18.643 7.47058 18.7081 7.54384 18.7081H8.22527C8.32295 18.7081 8.40602 18.6371 8.42125 18.5405L8.57695 17.5533C8.59197 17.4566 8.67525 17.3857 8.77272 17.3857H9.22457C10.1648 17.3857 10.7074 16.9307 10.8492 16.0291C10.9131 15.6346 10.8519 15.3247 10.6672 15.1076C10.4643 14.8693 10.1045 14.7432 9.62675 14.7432ZM9.79143 16.08C9.71339 16.5922 9.32205 16.5922 8.94366 16.5922H8.72826L8.87937 15.6356C8.88834 15.5778 8.93843 15.5353 8.99688 15.5353H9.0956C9.35335 15.5353 9.59652 15.5353 9.72218 15.6822C9.79703 15.7699 9.82002 15.9001 9.79143 16.08ZM13.8935 16.0636H13.2099C13.1517 16.0636 13.1014 16.1062 13.0924 16.164L13.0622 16.3552L13.0144 16.2859C12.8664 16.0711 12.5365 15.9993 12.2071 15.9993C11.4517 15.9993 10.8066 16.5714 10.681 17.3739C10.6157 17.7742 10.7085 18.1569 10.9356 18.4239C11.1439 18.6693 11.442 18.7716 11.7965 18.7716C12.4051 18.7716 12.7427 18.3803 12.7427 18.3803L12.7122 18.5702C12.7007 18.6429 12.7566 18.708 12.8294 18.708H13.4451C13.5431 18.708 13.6256 18.637 13.6411 18.5404L14.0105 16.2009C14.0222 16.129 13.9665 16.0636 13.8935 16.0636ZM12.9407 17.3939C12.8747 17.7844 12.5648 18.0466 12.1695 18.0466C11.9711 18.0466 11.8124 17.9829 11.7106 17.8623C11.6095 17.7425 11.5711 17.5719 11.6033 17.3821C11.6649 16.9948 11.98 16.7242 12.3693 16.7242C12.5633 16.7242 12.7211 16.7886 12.8251 16.9103C12.9292 17.0333 12.9705 17.2048 12.9407 17.3939ZM16.8469 16.0635H17.5339C17.6301 16.0635 17.6862 16.1714 17.6315 16.2503L15.347 19.5479C15.31 19.6013 15.249 19.6331 15.1839 19.6331H14.4979C14.4013 19.6331 14.3449 19.5243 14.4008 19.4452L15.1122 18.4411L14.3556 16.2208C14.3295 16.1436 14.3864 16.0635 14.4685 16.0635H15.1435C15.2312 16.0635 15.3085 16.121 15.3338 16.205L15.7354 17.546L16.6827 16.1505C16.7198 16.096 16.7815 16.0635 16.8469 16.0635Z" fill="#1E3A8A"/>
<path fillRule="evenodd" clipRule="evenodd" d="M24.2942 18.5707L24.88 14.8436C24.889 14.7857 24.9391 14.7431 24.9974 14.7429H25.6568C25.7297 14.7429 25.7856 14.8082 25.7741 14.8805L25.1964 18.5404C25.1814 18.637 25.0983 18.708 25.0004 18.708H24.4115C24.3387 18.708 24.2827 18.6429 24.2942 18.5707ZM19.808 14.7431H18.3803C18.2829 14.7431 18.1998 14.8141 18.1846 14.9105L17.6073 18.5707C17.5958 18.6429 17.6517 18.708 17.7246 18.708H18.4571C18.5252 18.708 18.5835 18.6584 18.5941 18.5908L18.7579 17.5532C18.773 17.4566 18.8562 17.3857 18.9537 17.3857H19.4053C20.3457 17.3857 20.8883 16.9307 21.0301 16.029C21.0942 15.6346 21.0327 15.3246 20.848 15.1075C20.6453 14.8693 20.2857 14.7431 19.808 14.7431ZM19.9726 16.0799C19.8948 16.5921 19.5034 16.5921 19.1248 16.5921H18.9096L19.061 15.6356C19.07 15.5778 19.1196 15.5352 19.1782 15.5352H19.2769C19.5345 15.5352 19.7779 15.5352 19.9035 15.6821C19.9784 15.7698 20.0012 15.9 19.9726 16.0799ZM24.0743 16.0635H23.3913C23.3325 16.0635 23.2827 16.1061 23.2739 16.164L23.2437 16.3551L23.1957 16.2859C23.0477 16.0711 22.718 15.9993 22.3886 15.9993C21.6332 15.9993 20.9883 16.5714 20.8627 17.3739C20.7976 17.7741 20.89 18.1569 21.1171 18.4239C21.3258 18.6693 21.6235 18.7716 21.978 18.7716C22.5866 18.7716 22.9241 18.3802 22.9241 18.3802L22.8936 18.5702C22.8822 18.6428 22.9381 18.7079 23.0114 18.7079H23.6268C23.7243 18.7079 23.8073 18.6369 23.8226 18.5403L24.1922 16.2009C24.2035 16.1289 24.1476 16.0635 24.0743 16.0635ZM23.1216 17.3939C23.056 17.7844 22.7457 18.0465 22.3504 18.0465C22.1523 18.0465 21.9933 17.9829 21.8914 17.8622C21.7904 17.7425 21.7524 17.5719 21.7842 17.382C21.8461 16.9948 22.1609 16.7242 22.5501 16.7242C22.7442 16.7242 22.902 16.7886 23.006 16.9103C23.1105 17.0332 23.1518 17.2048 23.1216 17.3939Z" fill="#0EA5E9"/>
<path d="M14.9091 13.4337L15.0846 12.3191L14.6937 12.3101H12.8272L14.1243 4.08528C14.1283 4.06045 14.1414 4.0373 14.1606 4.02086C14.1797 4.00442 14.2042 3.99536 14.2297 3.99536H17.3769C18.4218 3.99536 19.1428 4.21278 19.5193 4.64192C19.6957 4.84324 19.8082 5.05361 19.8625 5.28512C19.9195 5.52805 19.9206 5.81828 19.8649 6.17226L19.8608 6.1981V6.42491L20.0374 6.52491C20.186 6.60375 20.304 6.69401 20.3946 6.79735C20.5457 6.96948 20.6433 7.18824 20.6846 7.4476C20.7272 7.71435 20.7131 8.03175 20.6433 8.39111C20.5628 8.80448 20.4326 9.1645 20.2568 9.45909C20.095 9.73053 19.889 9.95562 19.6444 10.1302C19.4109 10.2959 19.1334 10.4217 18.8197 10.5023C18.5157 10.5814 18.1691 10.6214 17.789 10.6214H17.544C17.3689 10.6214 17.1987 10.6845 17.0652 10.7976C16.9314 10.913 16.8427 11.0706 16.8156 11.2431L16.7971 11.3434L16.4871 13.3079L16.473 13.38C16.4693 13.4029 16.4629 13.4143 16.4536 13.422C16.4452 13.429 16.4331 13.4337 16.4213 13.4337H14.9091Z" fill="#253B80"/>
<path d="M20.2045 6.22437C20.1951 6.28442 20.1844 6.34582 20.1723 6.4089C19.7572 8.53984 18.3373 9.27599 16.5237 9.27599H15.6004C15.3786 9.27599 15.1917 9.43703 15.1572 9.6558L14.6844 12.6541L14.5505 13.504C14.528 13.6476 14.6388 13.7771 14.7837 13.7771H16.4215C16.6154 13.7771 16.7801 13.6362 16.8106 13.4449L16.8267 13.3617L17.1351 11.4049L17.1549 11.2976C17.1851 11.1057 17.3501 10.9647 17.5441 10.9647H17.789C19.3757 10.9647 20.6179 10.3205 20.9809 8.45629C21.1326 7.67753 21.0541 7.02728 20.6527 6.56995C20.5313 6.43205 20.3807 6.31764 20.2045 6.22437Z" fill="#0EA5E9"/>
<path d="M19.7701 6.05132C19.7067 6.03286 19.6413 6.01608 19.5741 6.00099C19.5067 5.98623 19.4376 5.97314 19.3665 5.96173C19.1175 5.92147 18.8447 5.90234 18.5525 5.90234H16.0857C16.0249 5.90234 15.9673 5.9161 15.9156 5.94093C15.8018 5.99562 15.7173 6.10333 15.6968 6.23518L15.172 9.55892L15.1569 9.65589C15.1915 9.43712 15.3784 9.27607 15.6001 9.27607H16.5235C18.3371 9.27607 19.7571 8.53959 20.1721 6.40899C20.1844 6.34591 20.1949 6.28451 20.2042 6.22445C20.0993 6.16875 19.9855 6.12111 19.863 6.0805C19.8329 6.07044 19.8017 6.06071 19.7701 6.05132Z" fill="#1E3A8A"/>
<path d="M15.6968 6.23508C15.7173 6.10321 15.8019 5.99551 15.9156 5.94115C15.9677 5.91632 16.025 5.90257 16.0857 5.90257H18.5526C18.8448 5.90257 19.1176 5.92169 19.3665 5.96196C19.4377 5.97337 19.5068 5.98645 19.5742 6.00121C19.6414 6.01632 19.7068 6.03309 19.7702 6.05154C19.8017 6.06094 19.8329 6.07067 19.8634 6.0804C19.9859 6.121 20.0997 6.16898 20.2046 6.22434C20.3282 5.43686 20.2037 4.90069 19.7779 4.41517C19.3085 3.88068 18.4613 3.65186 17.3772 3.65186H14.2299C14.0085 3.65186 13.8196 3.8129 13.7853 4.032L12.4745 12.3413C12.4486 12.5057 12.5754 12.6541 12.7412 12.6541H14.6843L15.1721 9.55881L15.6968 6.23508Z" fill="#1E40AF"/>
</svg>
