<svg width="33" height="23" viewBox="0 0 33 23" fill="none" xmlns="http://www.w3.org/2000/svg">
<rect x="0.200195" y="0.758789" width="32.1143" height="22.0213" rx="2" fill="white"/>
<path fillRule="evenodd" clipRule="evenodd" d="M9.94944 15.6767H8.00393L6.54504 10.1109C6.47579 9.85492 6.32877 9.62858 6.11249 9.5219C5.57276 9.25382 4.97801 9.04047 4.32919 8.93286V8.71858H7.46325C7.8958 8.71858 8.22021 9.04047 8.27427 9.4143L9.03123 13.4291L10.9758 8.71858H12.8672L9.94944 15.6767ZM13.9486 15.6767H12.1112L13.6242 8.71858H15.4616L13.9486 15.6767ZM17.8387 10.6462C17.8927 10.2714 18.2171 10.0571 18.5956 10.0571C19.1904 10.0033 19.8382 10.111 20.3789 10.3781L20.7033 8.87999C20.1626 8.66571 19.5679 8.55811 19.0282 8.55811C17.2449 8.55811 15.9472 9.52191 15.9472 10.8595C15.9472 11.8772 16.8664 12.4115 17.5152 12.7334C18.2171 13.0543 18.4875 13.2686 18.4334 13.5896C18.4334 14.071 17.8927 14.2853 17.353 14.2853C16.7042 14.2853 16.0554 14.1248 15.4616 13.8567L15.1371 15.3558C15.786 15.6229 16.4879 15.7305 17.1367 15.7305C19.1363 15.7834 20.3789 14.8205 20.3789 13.3753C20.3789 11.5553 17.8387 11.4486 17.8387 10.6462ZM26.8092 15.6767L25.3503 8.71858H23.7833C23.4589 8.71858 23.1345 8.93286 23.0264 9.25382L20.3248 15.6767H22.2163L22.5938 14.66H24.9178L25.1341 15.6767H26.8092ZM24.0536 10.5924L24.5934 13.2148H23.0804L24.0536 10.5924Z" fill="#1E40AF"/>
</svg>
