<svg width="53" height="8" viewBox="0 0 53 8" fill="none" xmlns="http://www.w3.org/2000/svg">
<g id="ARTWORK" clip-path="url(#clip0_1_755)">
<path id="Vector" d="M21.4808 0C21.4688 0.150865 21.4527 0.299718 21.4326 0.450583C21.4205 0.547137 21.4024 0.651737 21.3863 0.754325C21.3742 0.822717 21.3642 0.885074 21.3501 0.947432C21.332 1.05404 21.3058 1.17272 21.2797 1.2914C21.2716 1.32158 21.2636 1.3598 21.2535 1.40003C20.6843 3.74346 18.6788 7.70819 11.6666 7.84498C11.558 7.84498 11.4473 7.849 11.3347 7.849C6.56935 7.849 3.10952 5.78316 1.32931 1.87475C1.24885 1.69974 1.1704 1.5167 1.09799 1.33163C1.00948 1.11037 0.93304 0.903178 0.86666 0.700013C0.850567 0.665817 0.649414 0 0.649414 0H4.50552L4.6403 0.287649C4.96214 0.989674 5.3564 1.59917 5.81704 2.10406C6.61361 2.97506 7.63346 3.58254 8.76193 3.9245C10.7936 4.54003 13.2255 4.49175 15.1586 3.58053C15.8606 3.25064 16.4862 2.75982 16.9509 2.13424C17.3914 1.53882 17.7293 0.770417 17.84 0L21.4808 0Z" fill="white"/>
<path id="Vector_2" d="M52.5147 0C52.4946 0.323857 52.4604 0.645702 52.4001 0.965536C52.3941 0.999732 52.386 1.03393 52.378 1.06611C52.3558 1.17675 52.3337 1.28537 52.3055 1.396C52.211 1.78021 52.0803 2.20665 51.8952 2.65321C51.8328 2.80206 51.7665 2.95293 51.692 3.10581C50.6661 5.20182 48.3931 7.54124 43.3623 7.81682C43.2376 7.82486 43.1169 7.8309 42.9942 7.83492C42.9036 7.83693 42.8111 7.83894 42.7186 7.84095C42.61 7.84498 42.4993 7.84498 42.3867 7.84498C39.4418 7.84498 37.0018 7.05042 35.1431 5.52166C35.1331 5.51361 35.123 5.50556 35.111 5.49551C35.0727 5.46332 35.0325 5.43114 34.9943 5.39694C34.9681 5.37482 34.94 5.35269 34.9118 5.32855L34.9078 5.32453C34.9078 5.32453 34.8917 5.31246 34.8857 5.30642C34.8776 5.29838 34.8676 5.28832 34.8555 5.27826C34.7911 5.21993 34.7248 5.1636 34.6624 5.10527C34.6041 5.05498 34.5477 4.99866 34.4914 4.94032C34.411 4.86389 34.3325 4.78342 34.2561 4.70095C34.244 4.68888 34.2319 4.67681 34.2219 4.66474C34.1575 4.59434 34.0911 4.51991 34.0227 4.44549L33.9644 4.37911C33.898 4.30267 33.8336 4.22623 33.7713 4.14577C33.7512 4.12163 33.7311 4.09749 33.7109 4.07335C33.6948 4.05324 33.6788 4.03312 33.6627 4.011C33.6285 3.96473 33.5923 3.92048 33.5581 3.8722C33.1095 3.27075 32.7152 2.60292 32.3813 1.87073C32.3009 1.69572 32.2244 1.51468 32.15 1.32761C32.0615 1.10835 31.985 0.901167 31.9187 0.69599C31.9026 0.665817 31.7215 0.060346 31.7034 0H35.5595L35.6943 0.285638C35.7547 0.418399 35.819 0.547137 35.8854 0.673863C35.8854 0.677886 35.8894 0.68191 35.8914 0.685933C36.171 1.221 36.5009 1.69371 36.8711 2.10004C37.2573 2.52246 37.6958 2.88253 38.1725 3.18023C38.2409 3.22449 38.3093 3.26472 38.3797 3.30495C38.4401 3.33914 38.5024 3.37334 38.5628 3.40351C38.959 3.61674 39.3794 3.78772 39.8139 3.92048C41.8476 4.53802 44.2775 4.48773 46.2106 3.57852C46.6592 3.36731 47.0756 3.08971 47.4396 2.7558C47.6468 2.56672 47.8359 2.35752 48.0029 2.13021C48.4454 1.53681 48.7813 0.768405 48.896 0H52.5147Z" fill="white"/>
</g>
<defs>
<clipPath id="clip0_1_755">
<rect width="51.8654" height="7.849" fill="white" transform="translate(0.649414)"/>
</clipPath>
</defs>
</svg>
